<svg xmlns="http://www.w3.org/2000/svg" viewBox="0 0 720 520" font-family="system-ui, -apple-system, sans-serif">
  <defs>
    <linearGradient id="bg1" x1="0" y1="0" x2="1" y2="1">
      <stop offset="0%" stop-color="#fef3f2"/>
      <stop offset="100%" stop-color="#fde8e8"/>
    </linearGradient>
  </defs>
  
  <!-- Background -->
  <rect width="720" height="520" rx="16" fill="url(#bg1)" stroke="#fca5a5" stroke-width="2"/>
  
  <!-- Title -->
  <text x="360" y="38" text-anchor="middle" font-size="22" font-weight="700" fill="#991b1b">Osa úhlu – pojmy a značení</text>
  
  <!-- Rameno a (šikmé doleva nahoru) -->
  <line x1="280" y1="400" x2="100" y2="140" stroke="#334155" stroke-width="3"/>
  <text x="80" y="135" font-size="18" font-weight="700" fill="#334155">a</text>
  
  <!-- Rameno b (šikmé doprava nahoru) -->
  <line x1="280" y1="400" x2="620" y2="200" stroke="#334155" stroke-width="3"/>
  <text x="635" y="200" font-size="18" font-weight="700" fill="#334155">b</text>
  
  <!-- Vrchol V -->
  <circle cx="280" cy="400" r="8" fill="#dc2626"/>
  <text x="260" y="430" font-size="20" font-weight="700" fill="#dc2626">V</text>
  
  <!-- Úhel α oblouk -->
  <path d="M 252,368 A 45,45 0 0,1 318,372" fill="none" stroke="#f59e0b" stroke-width="2.5"/>
  <text x="305" y="360" font-size="18" font-weight="700" fill="#f59e0b">α</text>
  
  <!-- Osa úhlu (polopřímka z V) -->
  <line x1="280" y1="400" x2="450" y2="130" stroke="#3b82f6" stroke-width="3" stroke-dasharray="12,6"/>
  <text x="460" y="125" font-size="18" font-weight="700" fill="#3b82f6">osa o</text>
  
  <!-- Půlení úhlu -->
  <path d="M 252,368 A 45,45 0 0,1 285,355" fill="none" stroke="#3b82f6" stroke-width="2" stroke-dasharray="4,3"/>
  <text x="240" y="350" font-size="14" font-weight="600" fill="#3b82f6">α/2</text>
  <path d="M 285,355 A 45,45 0 0,1 318,372" fill="none" stroke="#3b82f6" stroke-width="2" stroke-dasharray="4,3"/>
  <text x="320" y="345" font-size="14" font-weight="600" fill="#3b82f6">α/2</text>
  
  <!-- Bod X na ose -->
  <circle cx="390" cy="225" r="7" fill="#10b981"/>
  <text x="405" y="220" font-size="18" font-weight="700" fill="#10b981">X</text>
  
  <!-- Kolmice z X na rameno a -->
  <line x1="390" y1="225" x2="200" y2="255" stroke="#10b981" stroke-width="2" stroke-dasharray="6,4"/>
  <circle cx="200" cy="255" r="5" fill="#10b981" opacity="0.6"/>
  <text x="185" y="248" font-size="13" font-weight="600" fill="#10b981">P</text>
  <!-- Značka kolmosti u P -->
  <rect x="200" y="245" width="10" height="10" fill="none" stroke="#10b981" stroke-width="1.5" transform="rotate(-20, 200, 255)"/>
  
  <!-- Kolmice z X na rameno b -->
  <line x1="390" y1="225" x2="460" y2="310" stroke="#10b981" stroke-width="2" stroke-dasharray="6,4"/>
  <circle cx="460" cy="310" r="5" fill="#10b981" opacity="0.6"/>
  <text x="472" y="305" font-size="13" font-weight="600" fill="#10b981">Q</text>
  <!-- Značka kolmosti u Q -->
  <rect x="452" y="302" width="10" height="10" fill="none" stroke="#10b981" stroke-width="1.5" transform="rotate(30, 460, 310)"/>
  
  <!-- Vzdálenosti |XP| a |XQ| -->
  <text x="275" y="225" text-anchor="middle" font-size="15" font-weight="600" fill="#10b981">|XP|</text>
  <text x="440" y="255" text-anchor="middle" font-size="15" font-weight="600" fill="#10b981">|XQ|</text>
  
  <!-- Rovnost -->
  <rect x="290" y="155" width="175" height="32" rx="8" fill="#10b981" opacity="0.15"/>
  <text x="377" y="177" text-anchor="middle" font-size="18" font-weight="700" fill="#10b981">|XP| = |XQ|</text>
  
  <!-- Legend box -->
  <rect x="20" y="448" width="680" height="58" rx="10" fill="white" stroke="#fca5a5" stroke-width="1.5"/>
  <circle cx="50" cy="467" r="5" fill="#dc2626"/>
  <text x="62" y="472" font-size="13" fill="#334155"><tspan font-weight="600">Vrchol V</tspan> – bod, kde se ramena setkávají</text>
  <circle cx="50" cy="490" r="5" fill="#3b82f6"/>
  <text x="62" y="495" font-size="13" fill="#334155"><tspan font-weight="600">Osa o</tspan> – polopřímka půlící úhel α</text>
  <circle cx="350" cy="467" r="5" fill="#10b981"/>
  <text x="362" y="472" font-size="13" fill="#334155"><tspan font-weight="600">Bod X na ose</tspan> – |XP| = |XQ| (kolmé vzdálenosti)</text>
  <circle cx="350" cy="490" r="5" fill="#f59e0b"/>
  <text x="362" y="495" font-size="13" fill="#334155"><tspan font-weight="600">α</tspan> – úhel mezi rameny a, b</text>
</svg>
